<svg width="50" height="50" viewBox="0 0 50 50" fill="none" xmlns="http://www.w3.org/2000/svg">
<path d="M12.5 40L12.5 30L4.11743 21.0602C3.67084 20.6144 3.34208 20.0647 3.1607 19.4605C2.97931 18.8563 2.95098 18.2166 3.07825 17.5987C3.20211 16.92 3.50497 16.2866 3.95558 15.764C4.40618 15.2413 4.98819 14.8482 5.64157 14.6253L42.7751 2.24357C43.4706 1.9846 44.2259 1.9308 44.9511 2.08857C45.6763 2.24634 46.3409 2.60904 46.8657 3.13348C47.3905 3.65792 47.7535 4.32202 47.9114 5.04672C48.0693 5.77142 48.0154 6.52619 47.7563 7.22119L35.3692 44.3284C35.161 44.9595 34.7939 45.5266 34.3031 45.9752C33.8124 46.4238 33.2145 46.7387 32.5668 46.8899C31.9226 47.0482 31.2481 47.0356 30.6102 46.8535C29.9723 46.6714 29.393 46.3259 28.9297 45.8514L23.5 40H12.5ZM12.5 40L46.6513 3.0051" stroke="#1F1F1F" stroke-width="4" stroke-linecap="round" stroke-linejoin="round"/>
</svg>
