<svg width="50" height="50" viewBox="0 0 50 50" fill="none" xmlns="http://www.w3.org/2000/svg">
<path d="M31.599 18.399L18.399 31.599M31.599 31.599H31.577M18.421 18.399H18.399M15.5215 41.7541C16.8195 41.7541 17.4707 41.7541 18.0624 41.9741C18.146 42.0049 18.2274 42.0387 18.3066 42.0753C18.8808 42.3393 19.3406 42.7969 20.2602 43.7165C22.3766 45.8329 23.4348 46.8911 24.735 46.9901C24.911 47.0033 25.087 47.0033 25.263 46.9901C26.5632 46.8911 27.6214 45.8329 29.7378 43.7165C30.6574 42.7969 31.1172 42.3393 31.6914 42.0753C31.7706 42.0387 31.8512 42.0049 31.9334 41.9741C32.5274 41.7541 33.1764 41.7541 34.4766 41.7541H34.7186C38.0339 41.7541 39.6927 41.7541 40.7245 40.7245C41.7563 39.6949 41.7541 38.0339 41.7541 34.7186V34.4766C41.7541 33.1786 41.7541 32.5274 41.9741 31.9356C42.0049 31.852 42.0387 31.7706 42.0753 31.6914C42.3393 31.1172 42.7969 30.6574 43.7165 29.7378C45.8329 27.6214 46.8911 26.5632 46.9901 25.263C47.0033 25.087 47.0033 24.911 46.9901 24.735C46.8911 23.4348 45.8329 22.3766 43.7165 20.2602C42.7969 19.3406 42.3393 18.8808 42.0753 18.3066L41.9741 18.0646C41.7541 17.4707 41.7541 16.8217 41.7541 15.5215V15.2795C41.7541 11.9641 41.7541 10.3053 40.7245 9.2735C39.6949 8.2417 38.0339 8.2439 34.7186 8.2439H34.4766C33.1786 8.2439 32.5274 8.2439 31.9356 8.0239L31.6914 7.9227C31.1172 7.6587 30.6574 7.20111 29.7378 6.28151C27.6214 4.16512 26.5632 3.10693 25.263 3.00793C25.0872 2.99736 24.9109 2.99736 24.735 3.00793C23.4348 3.10693 22.3766 4.16512 20.2602 6.28151C19.3406 7.20111 18.8808 7.6609 18.3066 7.9227L18.0646 8.0239C17.4707 8.2439 16.8217 8.2439 15.5215 8.2439H15.2795C11.9641 8.2439 10.3053 8.2439 9.2735 9.2735C8.2417 10.3031 8.2439 11.9641 8.2439 15.2795V15.5215C8.2439 16.8195 8.2439 17.4707 8.0239 18.0624C7.99163 18.146 7.9579 18.2274 7.9227 18.3066C7.6587 18.8808 7.20111 19.3406 6.28151 20.2602C4.16512 22.3766 3.10693 23.4348 3.00793 24.735C2.99736 24.9109 2.99736 25.0872 3.00793 25.263C3.10693 26.5632 4.16512 27.6214 6.28151 29.7378C7.20111 30.6574 7.6609 31.1172 7.9227 31.6914C7.95937 31.7706 7.9931 31.8512 8.0239 31.9334C8.2439 32.5274 8.2439 33.1764 8.2439 34.4766V34.7186C8.2439 38.0339 8.2439 39.6927 9.2735 40.7245C10.3031 41.7563 11.9641 41.7541 15.2795 41.7541H15.5215Z" stroke="#1F1F1F" stroke-width="4" stroke-linecap="round" stroke-linejoin="round"/>
</svg>
