<svg width="205" height="90" viewBox="0 0 205 90" fill="none" xmlns="http://www.w3.org/2000/svg">
<path d="M32.5541 62.3653V39.1755H38.6025V62.3653H32.5541ZM32 32.1937C32 31.2869 32.3078 30.5237 32.9234 29.9041C33.5544 29.2694 34.4394 28.9521 35.5783 28.9521C36.7325 28.9521 37.6098 29.2619 38.21 29.8815C38.8256 30.5011 39.1334 31.2718 39.1334 32.1937C39.1334 33.1155 38.8256 33.8938 38.21 34.5285C37.5944 35.1481 36.7095 35.4579 35.5552 35.4579C34.4163 35.4579 33.539 35.1481 32.9234 34.5285C32.3078 33.8938 32 33.1155 32 32.1937Z" fill="#1F1F1F"/>
<path d="M43.2427 55.1567L49.0602 55.1794V55.4968C49.0602 56.6906 49.4681 57.5671 50.2838 58.1263C51.1149 58.6703 52.2384 58.9424 53.6543 58.9424C55.0548 58.9424 56.1244 58.6854 56.8632 58.1716C57.6173 57.6578 57.9944 56.9551 57.9944 56.0635C57.9944 55.187 57.625 54.5296 56.8863 54.0913C56.1475 53.6531 54.5315 53.1619 52.0383 52.6179C49.2988 52.0436 47.2519 51.1898 45.8975 50.0563C44.5586 48.9229 43.8891 47.4041 43.8891 45.5C43.8891 43.3692 44.7663 41.6766 46.5208 40.4223C48.2753 39.1528 50.6455 38.5181 53.6312 38.5181C56.6169 38.5181 59.0024 39.168 60.7877 40.4676C62.573 41.7673 63.4657 43.5505 63.4657 45.8174V46.0894H57.6712V45.7267C57.6712 44.7293 57.3326 43.9661 56.6554 43.4372C55.9782 42.9082 54.9625 42.6438 53.6081 42.6438C52.2691 42.6438 51.2919 42.8705 50.6762 43.3238C50.0606 43.7772 49.7528 44.3817 49.7528 45.1373C49.7528 45.8778 50.1299 46.4672 50.884 46.9054C51.6535 47.3437 53.2926 47.8273 55.8012 48.3562C58.5561 48.9305 60.603 49.7768 61.942 50.8951C63.2964 52.0134 63.9735 53.5699 63.9735 55.5648C63.9735 57.8769 63.104 59.698 61.3649 61.0278C59.6258 62.3426 57.0709 63 53.7005 63C50.3453 63 47.7675 62.3351 45.9668 61.0052C44.1661 59.6753 43.2581 57.8165 43.2427 55.4288V55.1567Z" fill="#1F1F1F"/>
<path d="M68.6599 62.3653V28H74.7083V62.3653H68.6599Z" fill="#1F1F1F"/>
<path d="M79.4178 55.5874C79.4178 53.109 80.3951 51.22 82.3497 49.9203C84.3042 48.6056 86.8052 47.9406 89.8525 47.9255H94.9082V46.4521C94.9082 45.2884 94.6004 44.359 93.9848 43.6639C93.3692 42.9536 92.3149 42.5984 90.8221 42.5984C89.3292 42.5984 88.2519 42.8931 87.5901 43.4825C86.9283 44.0568 86.5974 44.7822 86.5974 45.6587V45.976H80.7337V45.6133C80.7337 43.6034 81.6802 41.9259 83.5732 40.581C85.4662 39.2209 87.9672 38.5408 91.076 38.5408C94.2157 38.5408 96.6396 39.1906 98.348 40.4903C100.072 41.7899 100.934 43.7999 100.934 46.5201V57.0609C100.934 58.013 101.011 58.9197 101.164 59.7811C101.334 60.6425 101.572 61.383 101.88 62.0026V62.3653H95.9702C95.7701 62.0026 95.5931 61.5417 95.4392 60.9825C95.2853 60.4082 95.1776 59.834 95.116 59.2597C94.6235 60.1816 93.7232 60.9976 92.415 61.7079C91.1222 62.4182 89.4908 62.7733 87.5208 62.7733C85.1969 62.7733 83.2654 62.1688 81.7264 60.9598C80.1873 59.7509 79.4178 57.9601 79.4178 55.5874ZM85.42 55.1341C85.42 56.2524 85.7509 57.1364 86.4127 57.7863C87.0745 58.4361 88.1057 58.761 89.5062 58.761C90.9529 58.761 92.2149 58.285 93.2922 57.3329C94.3696 56.3808 94.9082 55.2927 94.9082 54.0687V51.5298H90.8913C89.0445 51.5298 87.667 51.8471 86.759 52.4819C85.8664 53.1015 85.42 53.9855 85.42 55.1341Z" fill="#1F1F1F"/>
<path d="M106.82 62.3653V39.1755H112.523L112.661 42.0091H112.776C113.454 41.0117 114.408 40.2107 115.639 39.6062C116.886 39.0017 118.279 38.6995 119.818 38.6995C122.218 38.6995 124.158 39.372 125.635 40.717C127.128 42.0468 127.874 44.3288 127.874 47.5628V62.3653H121.849V47.6762C121.849 46.0894 121.495 44.9711 120.787 44.3212C120.079 43.6563 119.087 43.3238 117.809 43.3238C116.716 43.3238 115.731 43.6261 114.854 44.2306C113.977 44.8199 113.307 45.6209 112.846 46.6334V62.3653H106.82Z" fill="#1F1F1F"/>
<path d="M132.191 51.1218V50.3964C132.191 46.981 133.115 44.1852 134.962 42.0091C136.809 39.8178 139.24 38.7222 142.257 38.7222C143.842 38.7222 145.204 38.9942 146.343 39.5382C147.482 40.0823 148.374 40.8001 149.021 41.6917V28H155V62.3653H149.321L149.182 59.4637H149.09C148.521 60.4007 147.636 61.1941 146.435 61.8439C145.25 62.4937 143.865 62.8187 142.28 62.8187C139.156 62.8187 136.693 61.7306 134.892 59.5544C133.092 57.3631 132.191 54.5522 132.191 51.1218ZM138.332 51.2804C138.332 53.3508 138.779 55.0509 139.671 56.3808C140.579 57.6956 141.964 58.353 143.827 58.353C145.089 58.353 146.158 58.013 147.035 57.3329C147.928 56.6528 148.575 55.8595 148.975 54.9527V46.5427C148.575 45.636 147.944 44.8502 147.082 44.1852C146.22 43.5203 145.142 43.1878 143.85 43.1878C141.987 43.1878 140.602 43.8528 139.694 45.1826C138.786 46.5125 138.332 48.2051 138.332 50.2604V51.2804Z" fill="#1F1F1F"/>
<circle cx="166" cy="33" r="6" fill="#FF8A00"/>
</svg>
