<svg width="50" height="50" viewBox="0 0 50 50" fill="none" xmlns="http://www.w3.org/2000/svg">
<path d="M39.601 16.2C39.308 20.267 36.291 23.4 33.001 23.4C29.711 23.4 26.689 20.268 26.401 16.2C26.101 11.969 29.038 9 33.001 9C36.964 9 39.901 12.046 39.601 16.2Z" stroke="#1F1F1F" stroke-width="4" stroke-linecap="round" stroke-linejoin="round"/>
<path d="M33.0009 29.8C26.4839 29.8 20.2169 33.037 18.6469 39.341C18.4389 40.175 18.9619 41 19.8189 41H46.1839C47.0409 41 47.5609 40.175 47.3559 39.341C45.7859 32.936 39.5189 29.8 33.0009 29.8Z" stroke="#1F1F1F" stroke-width="4" stroke-miterlimit="10"/>
<path d="M19.401 17.994C19.167 21.242 16.729 23.8 14.101 23.8C11.473 23.8 9.031 21.243 8.801 17.994C8.562 14.615 10.935 12.2 14.101 12.2C17.267 12.2 19.64 14.677 19.401 17.994Z" stroke="#1F1F1F" stroke-width="4" stroke-linecap="round" stroke-linejoin="round"/>
<path d="M20.0007 30C18.1957 29.173 16.2077 28.855 14.1007 28.855C8.90071 28.855 3.89071 31.44 2.63571 36.475C2.47071 37.141 2.88871 37.8 3.57271 37.8H14.8007" stroke="#1F1F1F" stroke-width="4" stroke-miterlimit="10" stroke-linecap="round"/>
</svg>
